<svg width="12" height="12" viewBox="0 0 12 12" fill="none" xmlns="http://www.w3.org/2000/svg">
<g clip-path="url(#clip0_948_294)">
<path d="M7.80216 3.8325L7.04091 3.07162L3.23466 6.87712C2.60391 7.5075 2.60391 8.53012 3.23466 9.1605C3.86541 9.79087 4.88766 9.79087 5.51841 9.1605L10.0859 4.59375C11.1374 3.543 11.1374 1.839 10.0859 0.788248C9.03516 -0.262877 7.33078 -0.262877 6.28003 0.788248L1.48453 5.58337C1.48116 5.58675 1.47741 5.59012 1.47441 5.59312C0.00853121 7.059 0.00853121 9.435 1.47441 10.9005C2.93991 12.366 5.31666 12.366 6.78291 10.9005C6.78628 10.8971 6.78891 10.8937 6.79266 10.8904L6.79303 10.8907L10.0664 7.61775L9.30478 6.85687L6.03141 10.1295C6.02803 10.1325 6.02466 10.1362 6.02166 10.1392C4.97766 11.1829 3.27966 11.1829 2.23566 10.1392C1.19203 9.09562 1.19203 7.398 2.23566 6.35437C2.23941 6.351 2.24278 6.34762 2.24616 6.34462L2.24578 6.34387L7.04203 1.54912C7.67128 0.919498 8.69616 0.919498 9.32578 1.54912C9.95541 2.17875 9.95503 3.20325 9.32578 3.8325L4.75828 8.39925C4.54828 8.60925 4.20703 8.60925 3.99703 8.39925C3.78741 8.18962 3.78741 7.848 3.99703 7.63837L7.80328 3.8325H7.80216Z" fill="#30B06F"/>
</g>
<defs>
<clipPath id="clip0_948_294">
<rect width="12" height="12" fill="white"/>
</clipPath>
</defs>
</svg>
