<svg width="10" height="11" viewBox="0 0 10 11" fill="none" xmlns="http://www.w3.org/2000/svg">
<path d="M8 3V9.5C8 9.638 7.9445 9.7625 7.8535 9.8535C7.7625 9.9445 7.638 10 7.5 10H2.5C2.362 10 2.2375 9.9445 2.1465 9.8535C2.0555 9.7625 2 9.638 2 9.5V3H8ZM7.5 2V1.5C7.5 1.086 7.3315 0.71 7.0605 0.4395C6.7895 0.169 6.414 0 6 0H4C3.586 0 3.21 0.1685 2.9395 0.4395C2.669 0.7105 2.5 1.086 2.5 1.5V2H0.5C0.224 2 0 2.224 0 2.5C0 2.776 0.224 3 0.5 3H1V9.5C1 9.914 1.1685 10.29 1.4395 10.5605C1.7105 10.831 2.086 11 2.5 11H7.5C7.914 11 8.29 10.8315 8.5605 10.5605C8.831 10.2895 9 9.914 9 9.5V3H9.5C9.776 3 10 2.776 10 2.5C10 2.224 9.776 2 9.5 2H7.5ZM3.5 2V1.5C3.5 1.362 3.5555 1.2375 3.6465 1.1465C3.7375 1.0555 3.862 1 4 1H6C6.138 1 6.2625 1.0555 6.3535 1.1465C6.4445 1.2375 6.5 1.362 6.5 1.5V2H3.5ZM3.5 5V8C3.5 8.276 3.724 8.5 4 8.5C4.276 8.5 4.5 8.276 4.5 8V5C4.5 4.724 4.276 4.5 4 4.5C3.724 4.5 3.5 4.724 3.5 5ZM5.5 5V8C5.5 8.276 5.724 8.5 6 8.5C6.276 8.5 6.5 8.276 6.5 8V5C6.5 4.724 6.276 4.5 6 4.5C5.724 4.5 5.5 4.724 5.5 5Z" fill="#7A7171"/>
</svg>
