<svg width="20" height="18" viewBox="0 0 20 18" fill="none" xmlns="http://www.w3.org/2000/svg">
<path d="M15.0002 6H12.0002V0H8.00023V6H5.00023L10.0002 11L15.0002 6ZM19.3382 12.532C19.1282 12.308 17.7272 10.809 17.3272 10.418C17.0622 10.159 16.6832 10 16.2852 10H14.5282L17.5922 12.994H14.0482C13.9462 12.994 13.8542 13.046 13.8082 13.127L12.9922 15H7.00822L6.19222 13.127C6.14622 13.046 6.05323 12.994 5.95223 12.994H2.40823L5.47123 10H3.71522C3.31822 10 2.93923 10.159 2.67323 10.418C2.27323 10.81 0.872225 12.309 0.662225 12.532C0.173225 13.053 -0.0957749 13.468 0.0322251 13.981L0.593225 17.055C0.721225 17.569 1.28423 17.991 1.84523 17.991H18.1572C18.7182 17.991 19.2812 17.569 19.4092 17.055L19.9702 13.981C20.0962 13.468 19.8282 13.053 19.3382 12.532V12.532Z" fill="black"/>
</svg>
