<svg width="12" height="10" viewBox="0 0 12 10" fill="none" xmlns="http://www.w3.org/2000/svg">
<path d="M0.437489 9.99999C0.39144 10.0002 0.345668 9.99291 0.302029 9.97833C0.21077 9.94895 0.1318 9.89061 0.0773083 9.81231C0.0228166 9.734 -0.00416702 9.64009 0.000522436 9.54507C0.000522436 9.48008 0.450598 3.18916 6.81283 2.69525V0.433638C6.81276 0.347501 6.83858 0.263297 6.887 0.191779C6.93542 0.120262 7.00424 0.0646783 7.08467 0.0321273C7.1651 -0.000423643 7.2535 -0.00846418 7.33856 0.00903259C7.42362 0.0265294 7.50149 0.0687693 7.56223 0.130357L11.8751 4.49761C11.9552 4.5786 12 4.68748 12 4.80089C12 4.91429 11.9552 5.02318 11.8751 5.10417L7.56223 9.47142C7.50149 9.53301 7.42362 9.57525 7.33856 9.59274C7.2535 9.61024 7.1651 9.6022 7.08467 9.56965C7.00424 9.5371 6.93542 9.48151 6.887 9.41C6.83858 9.33848 6.81276 9.25427 6.81283 9.16814V6.94985C2.56552 7.11016 0.824204 9.76603 0.806726 9.79853C0.767304 9.86025 0.71278 9.91109 0.648223 9.94632C0.583667 9.98154 0.511175 10 0.437489 9.99999V9.99999ZM7.68677 1.49512V3.10035C7.68683 3.21267 7.6429 3.32064 7.56423 3.40147C7.48557 3.4823 7.37831 3.52967 7.26509 3.53361C3.14887 3.68308 1.67629 6.40178 1.14756 8.14998C2.23998 7.21414 4.18666 6.07034 7.22358 6.07034H7.24324C7.35913 6.07034 7.47028 6.11598 7.55223 6.19723C7.63417 6.27849 7.68021 6.38869 7.68021 6.50359V8.10882L10.9575 4.80305L7.68677 1.49512Z" fill="#7A7171"/>
</svg>
