<svg width="20" height="26" viewBox="0 0 20 26" fill="none" xmlns="http://www.w3.org/2000/svg">
<path d="M14.4444 13H12.2222C11.6089 13 11.1111 12.5147 11.1111 11.9167C11.1111 11.3187 11.6089 10.8333 12.2222 10.8333H14.4444C15.0578 10.8333 15.5556 11.3187 15.5556 11.9167C15.5556 12.5147 15.0578 13 14.4444 13ZM15.5556 17.3333C15.5556 16.7353 15.0578 16.25 14.4444 16.25H10C9.38667 16.25 8.88889 16.7353 8.88889 17.3333C8.88889 17.9313 9.38667 18.4167 10 18.4167H14.4444C15.0578 18.4167 15.5556 17.9313 15.5556 17.3333ZM20 20.5833V7.58333C20 4.59658 17.5078 2.16667 14.4444 2.16667H14.2544C13.7956 0.905667 12.56 0 11.1111 0H8.88889C7.44 0 6.20444 0.905667 5.74556 2.16667H5.55556C2.49222 2.16667 0 4.59658 0 7.58333V20.5833C0 23.5701 2.49222 26 5.55556 26H14.4444C17.5078 26 20 23.5701 20 20.5833ZM6.66667 4.33333C7.28 4.33333 7.77778 3.848 7.77778 3.25C7.77778 2.652 8.27667 2.16667 8.88889 2.16667H11.1111C11.7233 2.16667 12.2222 2.65308 12.2222 3.25C12.2222 3.84692 12.72 4.33333 13.3333 4.33333H14.4444C16.2822 4.33333 17.7778 5.7915 17.7778 7.58333V20.5833C17.7778 22.3752 16.2822 23.8333 14.4444 23.8333H5.55556C3.71778 23.8333 2.22222 22.3752 2.22222 20.5833V7.58333C2.22222 5.7915 3.71778 4.33333 5.55556 4.33333H6.66667ZM5.55556 16.25C4.94222 16.25 4.44444 16.7353 4.44444 17.3333C4.44444 17.9313 4.94222 18.4167 5.55556 18.4167C6.16889 18.4167 6.66667 17.9313 6.66667 17.3333C6.66667 16.7353 6.16889 16.25 5.55556 16.25ZM7.59333 12.4833L9.66222 10.5278C10.1033 10.1108 10.1144 9.425 9.68667 8.996C9.25889 8.56592 8.55556 8.55617 8.11556 8.97217L6.29333 10.6947L5.39222 9.86483C4.94667 9.45425 4.24333 9.47267 3.82111 9.90925C3.4 10.3448 3.42 11.0305 3.86667 11.4411L4.98667 12.4713C5.33556 12.8126 5.80111 13 6.29556 13C6.79 13 7.25556 12.8126 7.59222 12.4833H7.59333Z" fill="#909490"/>
</svg>
