<svg width="29" height="29" viewBox="0 0 29 29" fill="none" xmlns="http://www.w3.org/2000/svg">
<path d="M25.762 11.5396L23.4782 10.7784L24.5537 8.62752C24.6627 8.40239 24.6991 8.14898 24.658 7.90225C24.6169 7.65552 24.5002 7.42763 24.3241 7.25002L21.7503 4.67627C21.5718 4.49754 21.3417 4.37927 21.0924 4.33809C20.8432 4.29691 20.5873 4.33489 20.3607 4.44669L18.2099 5.52211L17.4487 3.23836C17.3683 3.00031 17.2157 2.79324 17.0121 2.64597C16.8085 2.4987 16.5641 2.41856 16.3128 2.41669H12.6878C12.4345 2.41604 12.1874 2.49501 11.9814 2.64246C11.7754 2.7899 11.621 2.99836 11.5399 3.23836L10.7787 5.52211L8.62783 4.44669C8.4027 4.33768 8.14929 4.30121 7.90255 4.34233C7.65582 4.38346 7.42793 4.50014 7.25033 4.67627L4.67658 7.25002C4.49785 7.42857 4.37958 7.65865 4.3384 7.90791C4.29722 8.15716 4.3352 8.41306 4.447 8.63961L5.52241 10.7904L3.23866 11.5517C3.00061 11.6321 2.79354 11.7847 2.64628 11.9883C2.49901 12.1918 2.41886 12.4363 2.417 12.6875V16.3125C2.41634 16.5658 2.49532 16.813 2.64276 17.019C2.79021 17.2249 2.99866 17.3794 3.23866 17.4604L5.52241 18.2217L4.447 20.3725C4.33798 20.5977 4.30152 20.8511 4.34264 21.0978C4.38376 21.3445 4.50044 21.5724 4.67658 21.75L7.25033 24.3238C7.42888 24.5025 7.65896 24.6208 7.90821 24.662C8.15747 24.7031 8.41336 24.6652 8.63991 24.5534L10.7907 23.4779L11.552 25.7617C11.6331 26.0017 11.7875 26.2101 11.9935 26.3576C12.1995 26.505 12.4466 26.584 12.6999 26.5834H16.3249C16.5782 26.584 16.8254 26.505 17.0313 26.3576C17.2373 26.2101 17.3918 26.0017 17.4728 25.7617L18.2341 23.4779L20.3849 24.5534C20.6086 24.6596 20.8595 24.6946 21.1038 24.6535C21.348 24.6125 21.5737 24.4974 21.7503 24.3238L24.3241 21.75C24.5028 21.5715 24.6211 21.3414 24.6623 21.0921C24.7034 20.8429 24.6655 20.587 24.5537 20.3604L23.4782 18.2096L25.762 17.4484C26 17.368 26.2071 17.2154 26.3544 17.0118C26.5017 16.8082 26.5818 16.5638 26.5837 16.3125V12.6875C26.5843 12.4342 26.5053 12.1871 26.3579 11.9811C26.2105 11.7751 26.002 11.6207 25.762 11.5396ZM24.167 15.4425L22.717 15.9259C22.3836 16.034 22.0777 16.2134 21.8205 16.4516C21.5633 16.6898 21.361 16.9811 21.2277 17.3053C21.0943 17.6294 21.0331 17.9788 21.0482 18.329C21.0634 18.6792 21.1545 19.0219 21.3153 19.3334L22.0041 20.7109L20.6749 22.04L19.3337 21.315C19.0238 21.1606 18.6844 21.0746 18.3384 21.0628C17.9924 21.051 17.6479 21.1137 17.3282 21.2466C17.0085 21.3795 16.7212 21.5796 16.4855 21.8332C16.2499 22.0868 16.0715 22.3881 15.9624 22.7167L15.4791 24.1667H13.5578L13.0745 22.7167C12.9663 22.3833 12.7869 22.0774 12.5487 21.8202C12.3106 21.563 12.0193 21.3607 11.6951 21.2274C11.3709 21.094 11.0216 21.0328 10.6714 21.0479C10.3212 21.0631 9.97846 21.1542 9.667 21.315L8.2895 22.0038L6.96033 20.6746L7.68533 19.3334C7.84615 19.0219 7.93729 18.6792 7.95243 18.329C7.96756 17.9788 7.90633 17.6294 7.77298 17.3053C7.63963 16.9811 7.43735 16.6898 7.18018 16.4516C6.92301 16.2134 6.61709 16.034 6.28366 15.9259L4.83366 15.4425V13.5575L6.28366 13.0742C6.61709 12.966 6.92301 12.7866 7.18018 12.5484C7.43735 12.3102 7.63963 12.019 7.77298 11.6948C7.90633 11.3706 7.96756 11.0213 7.95243 10.6711C7.93729 10.3209 7.84615 9.97816 7.68533 9.66669L6.99658 8.32544L8.32575 6.99627L9.667 7.68502C9.97846 7.84585 10.3212 7.93699 10.6714 7.95212C11.0216 7.96726 11.3709 7.90603 11.6951 7.77268C12.0193 7.63932 12.3106 7.43705 12.5487 7.17987C12.7869 6.9227 12.9663 6.61679 13.0745 6.28336L13.5578 4.83336H15.4428L15.9262 6.28336C16.0343 6.61679 16.2137 6.9227 16.4519 7.17987C16.6901 7.43705 16.9814 7.63932 17.3056 7.77268C17.6298 7.90603 17.9791 7.96726 18.3293 7.95212C18.6795 7.93699 19.0222 7.84585 19.3337 7.68502L20.7112 6.99627L22.0403 8.32544L21.3153 9.66669C21.1609 9.97656 21.0749 10.316 21.0631 10.662C21.0513 11.008 21.114 11.3525 21.2469 11.6721C21.3798 11.9918 21.5799 12.2792 21.8335 12.5148C22.0871 12.7505 22.3884 12.9289 22.717 13.0379L24.167 13.5213V15.4425ZM14.5003 9.66669C13.5444 9.66669 12.6099 9.95016 11.8151 10.4813C11.0202 11.0123 10.4007 11.7672 10.0349 12.6504C9.66909 13.5336 9.57337 14.5054 9.75987 15.443C9.94636 16.3805 10.4067 17.2418 11.0826 17.9177C11.7586 18.5937 12.6198 19.054 13.5574 19.2405C14.495 19.427 15.4668 19.3313 16.35 18.9654C17.2331 18.5996 17.988 17.9801 18.5191 17.1853C19.0502 16.3904 19.3337 15.456 19.3337 14.5C19.3337 13.2181 18.8244 11.9888 17.918 11.0823C17.0116 10.1759 15.7822 9.66669 14.5003 9.66669ZM14.5003 16.9167C14.0224 16.9167 13.5551 16.775 13.1577 16.5094C12.7603 16.2439 12.4505 15.8664 12.2676 15.4248C12.0847 14.9833 12.0369 14.4973 12.1301 14.0286C12.2233 13.5598 12.4535 13.1292 12.7915 12.7912C13.1295 12.4532 13.5601 12.223 14.0289 12.1298C14.4976 12.0365 14.9836 12.0844 15.4251 12.2673C15.8667 12.4502 16.2442 12.76 16.5097 13.1574C16.7753 13.5548 16.917 14.0221 16.917 14.5C16.917 15.141 16.6624 15.7557 16.2092 16.2089C15.756 16.6621 15.1413 16.9167 14.5003 16.9167Z" fill="white"/>
</svg>
