<svg width="100" height="100" viewBox="0 0 100 100" fill="none" xmlns="http://www.w3.org/2000/svg">
<path fill-rule="evenodd" clip-rule="evenodd" d="M100 50C100 77.6142 77.6142 100 50 100C22.3858 100 0 77.6142 0 50C0 22.3858 22.3858 0 50 0C77.6142 0 100 22.3858 100 50ZM34 27C30.134 27 27 30.134 27 34V66C27 69.866 30.134 73 34 73H66C69.866 73 73 69.866 73 66V34C73 30.134 69.866 27 66 27H34ZM34 24C28.4772 24 24 28.4772 24 34V66C24 71.5228 28.4772 76 34 76H66C71.5228 76 76 71.5228 76 66V34C76 28.4772 71.5228 24 66 24H34ZM51.625 51.625H61.375C62.2725 51.625 63 50.8975 63 50C63 49.1025 62.2725 48.375 61.375 48.375H51.625V38.625C51.625 37.7275 50.8975 37 50 37C49.1025 37 48.375 37.7275 48.375 38.625V48.375H38.625C37.7275 48.375 37 49.1025 37 50C37 50.8975 37.7275 51.625 38.625 51.625H48.375V61.375C48.375 62.2725 49.1025 63 50 63C50.8975 63 51.625 62.2725 51.625 61.375V51.625Z" fill="black"/>
</svg>
