<svg width="25" height="24" viewBox="0 0 25 24" fill="none" xmlns="http://www.w3.org/2000/svg">
<path d="M24.0844 9.05305L16.1833 1.4625C15.2055 0.52593 13.8809 0 12.5 0C11.1191 0 9.79454 0.52593 8.81667 1.4625L0.915637 9.05305C0.624413 9.331 0.393522 9.66171 0.236348 10.026C0.0791741 10.3903 -0.00115667 10.781 1.25828e-05 11.1753V20.9982C1.25828e-05 21.7943 0.329252 22.5578 0.915303 23.1208C1.50135 23.6837 2.29621 24 3.12501 24H21.875C22.7038 24 23.4986 23.6837 24.0847 23.1208C24.6707 22.5578 25 21.7943 25 20.9982V11.1753C25.0012 10.781 24.9208 10.3903 24.7636 10.026C24.6065 9.66171 24.3756 9.331 24.0844 9.05305V9.05305ZM15.625 21.9988H9.375V18.0624C9.375 17.2663 9.70424 16.5028 10.2903 15.9399C10.8763 15.3769 11.6712 15.0606 12.5 15.0606C13.3288 15.0606 14.1237 15.3769 14.7097 15.9399C15.2958 16.5028 15.625 17.2663 15.625 18.0624V21.9988ZM22.9167 20.9982C22.9167 21.2636 22.8069 21.5181 22.6116 21.7057C22.4162 21.8934 22.1513 21.9988 21.875 21.9988H17.7083V18.0624C17.7083 16.7356 17.1596 15.463 16.1828 14.5248C15.2061 13.5865 13.8813 13.0594 12.5 13.0594C11.1187 13.0594 9.79391 13.5865 8.81716 14.5248C7.8404 15.463 7.29167 16.7356 7.29167 18.0624V21.9988H3.12501C2.84874 21.9988 2.58379 21.8934 2.38844 21.7057C2.19309 21.5181 2.08334 21.2636 2.08334 20.9982V11.1753C2.08431 10.9101 2.19396 10.656 2.38855 10.4679L10.2896 2.88035C10.8768 2.31894 11.6715 2.00377 12.5 2.00377C13.3285 2.00377 14.1232 2.31894 14.7104 2.88035L22.6114 10.4709C22.8053 10.6583 22.9149 10.9112 22.9167 11.1753V20.9982Z" fill="#909490"/>
</svg>
