<svg width="15" height="13" viewBox="0 0 15 13" fill="none" xmlns="http://www.w3.org/2000/svg">
<path d="M6.25 0C9.70167 0 12.5 2.20797 12.5 4.93147C12.5 7.65497 9.70167 9.86294 6.25 9.86294C5.91833 9.86294 5.59333 9.84222 5.27542 9.80322C3.93292 11.1069 2.3825 11.3409 0.833333 11.375V11.0561C1.67 10.658 2.34375 9.93281 2.34375 9.10447C2.34375 8.98869 2.33458 8.87534 2.3175 8.76444C0.904167 7.86053 0 6.47928 0 4.93188C0 2.20838 2.79833 0.00040625 6.25 0.00040625V0ZM12.9688 11.0537C12.9688 11.7638 13.4417 12.3853 14.1667 12.7266V13C12.8237 12.9707 11.5912 12.7701 10.4279 11.6529C10.1525 11.6866 9.87083 11.7041 9.58333 11.7041C8.34042 11.7041 7.195 11.377 6.28125 10.8278C8.165 10.8213 9.94333 10.233 11.2921 9.16866C11.9717 8.63241 12.5083 8.00272 12.8858 7.29788C13.2863 6.55038 13.4896 5.75453 13.4896 4.93147C13.4896 4.79903 13.4837 4.667 13.4733 4.53578C14.4183 5.29669 15 6.33384 15 7.47703C15 8.80344 14.2167 9.98725 12.9917 10.762C12.9767 10.857 12.9688 10.9545 12.9688 11.0537Z" fill="#69766F"/>
</svg>
