<svg width="11" height="12" viewBox="0 0 11 12" fill="none" xmlns="http://www.w3.org/2000/svg">
<path d="M8.008 4.24145C7.91656 4.00479 10.4411 1.81883 8.96912 0.0475196C8.62469 -0.366474 7.45594 2.03082 5.79631 3.11614C4.88056 3.7148 2.75 4.98944 2.75 5.6941V10.2554C2.75 11.1027 6.12838 12 8.6955 12C9.63669 12 11 6.28276 11 5.37477C11 4.46278 8.09806 4.47878 8.008 4.24145ZM2.0625 4.30479C1.61013 4.30479 0 4.57145 0 6.38675V9.6187C0 11.4327 1.61013 11.6327 2.0625 11.6327C2.51419 11.6327 1.375 11.2513 1.375 10.126V5.87743C1.375 4.69878 2.51419 4.30479 2.0625 4.30479Z" fill="#69766F"/>
</svg>
