<svg width="20" height="22" viewBox="0 0 20 22" fill="none" xmlns="http://www.w3.org/2000/svg">
<path d="M3 11H17C17.276 11 17.525 11.111 17.707 11.293C17.889 11.475 18 11.724 18 12V19C18 19.276 17.889 19.525 17.707 19.707C17.525 19.889 17.276 20 17 20H3C2.724 20 2.475 19.889 2.293 19.707C2.111 19.525 2 19.276 2 19V12C2 11.724 2.111 11.475 2.293 11.293C2.475 11.111 2.724 11 3 11ZM16 9V6C16 4.343 15.327 2.842 14.243 1.757C13.159 0.672 11.657 0 10 0C8.343 0 6.842 0.673 5.757 1.757C4.672 2.841 4 4.343 4 6V9H3C2.172 9 1.42 9.337 0.879 9.879C0.338 10.421 0 11.172 0 12V19C0 19.828 0.337 20.58 0.879 21.121C1.421 21.662 2.172 22 3 22H17C17.828 22 18.58 21.663 19.121 21.121C19.662 20.579 20 19.828 20 19V12C20 11.172 19.663 10.42 19.121 9.879C18.579 9.338 17.828 9 17 9H16ZM6 9V6C6 4.895 6.447 3.897 7.172 3.172C7.897 2.447 8.895 2 10 2C11.105 2 12.103 2.447 12.828 3.172C13.553 3.897 14 4.895 14 6V9H6Z" fill="#525855"/>
</svg>
