<svg width="19" height="18" viewBox="0 0 19 18" fill="none" xmlns="http://www.w3.org/2000/svg">
<g clip-path="url(#clip0_348_116)">
<path d="M18.018 15.3173L13.6568 11.6908C13.2057 11.2943 12.7236 11.112 12.3341 11.1295C13.3634 9.95045 13.9853 8.42102 13.9853 6.74927C13.9853 3.02158 10.8939 -0.000732422 7.08104 -0.000732422C3.26815 -0.000732422 0.176758 3.02158 0.176758 6.74927C0.176758 10.477 3.26815 13.4993 7.08104 13.4993C8.79101 13.4993 10.3554 12.8912 11.5613 11.8849C11.5435 12.2657 11.7299 12.7371 12.1356 13.1781L15.8449 17.4418C16.4801 18.1315 17.5174 18.19 18.1503 17.5712C18.7832 16.9525 18.724 15.9383 18.018 15.3173ZM7.08162 11.2498C4.53969 11.2498 2.47876 9.23496 2.47876 6.74983C2.47876 4.26471 4.53969 2.24983 7.08162 2.24983C9.62355 2.24983 11.6845 4.26471 11.6845 6.74983C11.6845 9.23496 9.62355 11.2498 7.08162 11.2498Z" fill="#A5A7A6"/>
</g>
<defs>
<clipPath id="clip0_348_116">
<rect width="18.4114" height="18" fill="white" transform="translate(0.177246)"/>
</clipPath>
</defs>
</svg>
