<svg width="21" height="21" viewBox="0 0 21 21" fill="none" xmlns="http://www.w3.org/2000/svg">
<path d="M13.5 2.5H17.5C17.776 2.5 18.025 2.611 18.207 2.793C18.389 2.975 18.5 3.224 18.5 3.5V17.5C18.5 17.776 18.389 18.025 18.207 18.207C18.025 18.389 17.776 18.5 17.5 18.5H13.5C12.948 18.5 12.5 18.948 12.5 19.5C12.5 20.052 12.948 20.5 13.5 20.5H17.5C18.328 20.5 19.08 20.163 19.621 19.621C20.162 19.079 20.5 18.328 20.5 17.5V3.5C20.5 2.672 20.163 1.92 19.621 1.379C19.079 0.838 18.328 0.5 17.5 0.5H13.5C12.948 0.5 12.5 0.948 12.5 1.5C12.5 2.052 12.948 2.5 13.5 2.5ZM11.086 9.5H1.5C0.948 9.5 0.5 9.948 0.5 10.5C0.5 11.052 0.948 11.5 1.5 11.5H11.086L7.793 14.793C7.402 15.184 7.402 15.817 7.793 16.207C8.184 16.597 8.817 16.598 9.207 16.207L14.207 11.207C14.303 11.111 14.375 11.001 14.424 10.883C14.473 10.765 14.5 10.636 14.5 10.5C14.5 10.37 14.475 10.239 14.424 10.117C14.375 9.999 14.303 9.889 14.207 9.793L9.207 4.793C8.816 4.402 8.183 4.402 7.793 4.793C7.403 5.184 7.402 5.817 7.793 6.207L11.086 9.5Z" fill="#525855"/>
</svg>
