<svg width="14" height="11" viewBox="0 0 14 11" fill="none" xmlns="http://www.w3.org/2000/svg">
<path d="M13.3 0H0.7C0.3129 0 0 0.307313 0 0.6875V10.3125C0 10.692 0.3129 11 0.7 11H13.3C13.6871 11 14 10.692 14 10.3125V0.6875C14 0.308 13.6871 0 13.3 0ZM12.6 9.625H1.4V1.375H12.6V9.625ZM10.0205 6.10294L7.7588 7.20638L5.1198 3.01194L2.8 8.25H11.2L10.0205 6.10294V6.10294ZM9.275 4.8125C9.758 4.8125 10.15 4.4275 10.15 3.95312C10.15 3.47875 9.758 3.09375 9.275 3.09375C8.792 3.09375 8.4 3.47875 8.4 3.95312C8.4 4.4275 8.792 4.8125 9.275 4.8125Z" fill="#30B06F"/>
</svg>
