<svg width="37" height="37" viewBox="0 0 37 37" fill="none" xmlns="http://www.w3.org/2000/svg">
<path d="M9.19238 25.2791L16.0867 18.3848L9.19238 11.4905C8.55778 10.8559 8.55778 9.82699 9.19238 9.19239C9.82698 8.55779 10.8559 8.55779 11.4905 9.19239L18.3848 16.0867L25.2791 9.19239C25.9137 8.55779 26.9426 8.55779 27.5772 9.19239C28.2118 9.82699 28.2118 10.8559 27.5772 11.4905L20.6829 18.3848L27.5772 25.2791C28.2118 25.9137 28.2118 26.9426 27.5772 27.5772C26.9426 28.2118 25.9137 28.2118 25.2791 27.5772L18.3848 20.6829L11.4905 27.5772C10.8559 28.2118 9.82698 28.2118 9.19238 27.5772C8.55778 26.9426 8.55778 25.9137 9.19238 25.2791Z" fill="#858C85"/>
</svg>
