<svg width="23" height="25" viewBox="0 0 23 25" fill="none" xmlns="http://www.w3.org/2000/svg">
<path d="M22.8061 14.2273L20.7972 7.10725C20.2083 5.02137 18.9286 3.18924 17.1613 1.90208C15.394 0.614919 13.2407 -0.0534067 11.0436 0.00333694C8.84649 0.0600806 6.73168 0.838637 5.03532 2.21525C3.33896 3.59187 2.15842 5.48754 1.68134 7.60094L0.125975 14.4908C-0.0458283 15.2521 -0.0418562 16.0417 0.137598 16.8013C0.317052 17.5608 0.667406 18.271 1.16279 18.8794C1.65818 19.4877 2.28595 19.9787 2.99976 20.3161C3.71357 20.6535 4.49518 20.8286 5.2869 20.8286H6.46479C6.70747 22.0058 7.35585 23.0642 8.30008 23.8245C9.2443 24.5847 10.4263 25 11.6458 25C12.8653 25 14.0473 24.5847 14.9915 23.8245C15.9358 23.0642 16.5841 22.0058 16.8268 20.8286H17.7129C18.5279 20.8286 19.3319 20.6431 20.0621 20.2864C20.7922 19.9297 21.4288 19.4116 21.922 18.7724C22.4152 18.1333 22.7518 17.3905 22.9053 16.602C23.0589 15.8136 23.0253 15.0008 22.8072 14.2273H22.8061ZM11.6458 22.9117C10.9921 22.909 10.3552 22.7075 9.82219 22.3346C9.28922 21.9617 8.88621 21.4357 8.66831 20.8286H14.6233C14.4054 21.4357 14.0024 21.9617 13.4694 22.3346C12.9364 22.7075 12.2995 22.909 11.6458 22.9117ZM20.2378 17.5113C19.9432 17.8963 19.5615 18.2083 19.123 18.4226C18.6845 18.6368 18.2013 18.7474 17.7118 18.7455H5.2869C4.81192 18.7454 4.34303 18.6403 3.91482 18.4378C3.48662 18.2353 3.11003 17.9407 2.81287 17.5757C2.51571 17.2107 2.30555 16.7847 2.19792 16.3289C2.09028 15.8732 2.08791 15.3995 2.19098 14.9428L3.74528 8.05193C4.11996 6.39192 5.04721 4.90292 6.37963 3.82163C7.71204 2.74034 9.37316 2.12883 11.0989 2.08429C12.8247 2.03976 14.516 2.56476 15.9041 3.57585C17.2921 4.58693 18.2973 6.02606 18.7597 7.66447L20.7686 14.7845C20.9014 15.2484 20.9225 15.7363 20.8304 16.2097C20.7382 16.683 20.5354 17.1287 20.2378 17.5113Z" fill="#909490"/>
</svg>
