<svg width="25" height="25" viewBox="0 0 25 25" fill="none" xmlns="http://www.w3.org/2000/svg">
<path d="M13.6047 22.3324L5.33437 14.0622H23.4375C24.3 14.0622 25 13.3622 25 12.4997C25 11.6372 24.3 10.9372 23.4375 10.9372H5.33437L13.6047 2.66697C14.2156 2.05604 14.2156 1.06698 13.6047 0.457614C12.9937 -0.151756 12.0047 -0.153319 11.3953 0.457614L0.457813 11.395C0.307813 11.545 0.195313 11.7169 0.11875 11.9013C0.0390628 12.0919 0 12.2966 0 12.4997C0 12.8997 0.153125 13.2997 0.457813 13.6044L11.3953 24.5418C12.0063 25.1527 12.9953 25.1527 13.6047 24.5418C14.2141 23.9309 14.2156 22.9418 13.6047 22.3324Z" fill="#6DC37C"/>
</svg>
