<svg width="23" height="23" viewBox="0 0 23 23" fill="none" xmlns="http://www.w3.org/2000/svg">
<path d="M6.70275 0H3.83014C2.81432 0 1.84011 0.403532 1.12182 1.12182C0.403532 1.84011 0 2.81432 0 3.83014L0 6.70275C0 7.71856 0.403532 8.69278 1.12182 9.41107C1.84011 10.1294 2.81432 10.5329 3.83014 10.5329H6.70275C7.71856 10.5329 8.69278 10.1294 9.41107 9.41107C10.1294 8.69278 10.5329 7.71856 10.5329 6.70275V3.83014C10.5329 2.81432 10.1294 1.84011 9.41107 1.12182C8.69278 0.403532 7.71856 0 6.70275 0V0ZM8.61782 6.70275C8.61782 7.21066 8.41605 7.69776 8.05691 8.05691C7.69776 8.41605 7.21066 8.61782 6.70275 8.61782H3.83014C3.32223 8.61782 2.83513 8.41605 2.47598 8.05691C2.11684 7.69776 1.91507 7.21066 1.91507 6.70275V3.83014C1.91507 3.32223 2.11684 2.83513 2.47598 2.47598C2.83513 2.11684 3.32223 1.91507 3.83014 1.91507H6.70275C7.21066 1.91507 7.69776 2.11684 8.05691 2.47598C8.41605 2.83513 8.61782 3.32223 8.61782 3.83014V6.70275Z" fill="#909490"/>
<path d="M19.151 0H16.2784C15.2626 0 14.2884 0.403532 13.5701 1.12182C12.8518 1.84011 12.4482 2.81432 12.4482 3.83014V6.70275C12.4482 7.71856 12.8518 8.69278 13.5701 9.41107C14.2884 10.1294 15.2626 10.5329 16.2784 10.5329H19.151C20.1668 10.5329 21.141 10.1294 21.8593 9.41107C22.5776 8.69278 22.9811 7.71856 22.9811 6.70275V3.83014C22.9811 2.81432 22.5776 1.84011 21.8593 1.12182C21.141 0.403532 20.1668 0 19.151 0V0ZM21.0661 6.70275C21.0661 7.21066 20.8643 7.69776 20.5051 8.05691C20.146 8.41605 19.6589 8.61782 19.151 8.61782H16.2784C15.7705 8.61782 15.2834 8.41605 14.9242 8.05691C14.5651 7.69776 14.3633 7.21066 14.3633 6.70275V3.83014C14.3633 3.32223 14.5651 2.83513 14.9242 2.47598C15.2834 2.11684 15.7705 1.91507 16.2784 1.91507H19.151C19.6589 1.91507 20.146 2.11684 20.5051 2.47598C20.8643 2.83513 21.0661 3.32223 21.0661 3.83014V6.70275Z" fill="#909490"/>
<path d="M6.70275 12.448H3.83014C2.81432 12.448 1.84011 12.8515 1.12182 13.5698C0.403532 14.2881 0 15.2623 0 16.2781L0 19.1507C0 20.1665 0.403532 21.1407 1.12182 21.859C1.84011 22.5773 2.81432 22.9809 3.83014 22.9809H6.70275C7.71856 22.9809 8.69278 22.5773 9.41107 21.859C10.1294 21.1407 10.5329 20.1665 10.5329 19.1507V16.2781C10.5329 15.2623 10.1294 14.2881 9.41107 13.5698C8.69278 12.8515 7.71856 12.448 6.70275 12.448ZM8.61782 19.1507C8.61782 19.6586 8.41605 20.1457 8.05691 20.5049C7.69776 20.864 7.21066 21.0658 6.70275 21.0658H3.83014C3.32223 21.0658 2.83513 20.864 2.47598 20.5049C2.11684 20.1457 1.91507 19.6586 1.91507 19.1507V16.2781C1.91507 15.7702 2.11684 15.2831 2.47598 14.924C2.83513 14.5648 3.32223 14.363 3.83014 14.363H6.70275C7.21066 14.363 7.69776 14.5648 8.05691 14.924C8.41605 15.2831 8.61782 15.7702 8.61782 16.2781V19.1507Z" fill="#909490"/>
<path d="M19.151 12.448H16.2784C15.2626 12.448 14.2884 12.8515 13.5701 13.5698C12.8518 14.2881 12.4482 15.2623 12.4482 16.2781V19.1507C12.4482 20.1665 12.8518 21.1407 13.5701 21.859C14.2884 22.5773 15.2626 22.9809 16.2784 22.9809H19.151C20.1668 22.9809 21.141 22.5773 21.8593 21.859C22.5776 21.1407 22.9811 20.1665 22.9811 19.1507V16.2781C22.9811 15.2623 22.5776 14.2881 21.8593 13.5698C21.141 12.8515 20.1668 12.448 19.151 12.448ZM21.0661 19.1507C21.0661 19.6586 20.8643 20.1457 20.5051 20.5049C20.146 20.864 19.6589 21.0658 19.151 21.0658H16.2784C15.7705 21.0658 15.2834 20.864 14.9242 20.5049C14.5651 20.1457 14.3633 19.6586 14.3633 19.1507V16.2781C14.3633 15.7702 14.5651 15.2831 14.9242 14.924C15.2834 14.5648 15.7705 14.363 16.2784 14.363H19.151C19.6589 14.363 20.146 14.5648 20.5051 14.924C20.8643 15.2831 21.0661 15.7702 21.0661 16.2781V19.1507Z" fill="#909490"/>
</svg>
