<svg width="30" height="30" viewBox="0 0 30 30" fill="none" xmlns="http://www.w3.org/2000/svg">
<circle cx="15" cy="15" r="14.5" stroke="#5BBE85"/>
<path d="M20.7 16.45V19.05C20.7 19.2294 20.6278 19.3913 20.5095 19.5096C20.3912 19.6279 20.2294 19.7 20.05 19.7H10.95C10.7706 19.7 10.6087 19.6279 10.4904 19.5096C10.3721 19.3913 10.3 19.2294 10.3 19.05V16.45C10.3 16.0912 10.0088 15.8 9.65 15.8C9.2912 15.8 9 16.0912 9 16.45V19.05C9 19.5882 9.21905 20.077 9.57135 20.4286C9.92365 20.7803 10.4118 21 10.95 21H20.05C20.5882 21 21.077 20.7809 21.4287 20.4286C21.7803 20.0763 22 19.5882 22 19.05V16.45C22 16.0912 21.7088 15.8 21.35 15.8C20.9912 15.8 20.7 16.0912 20.7 16.45ZM16.15 14.8809V8.65C16.15 8.2912 15.8588 8 15.5 8C15.1412 8 14.85 8.2912 14.85 8.65V14.8809L12.7096 12.7404C12.4554 12.4863 12.0439 12.4863 11.7904 12.7404C11.5369 12.9946 11.5363 13.406 11.7904 13.6595L15.0405 16.9095C15.1029 16.9719 15.1744 17.0187 15.2511 17.0506C15.3278 17.0824 15.4116 17.1 15.5 17.1C15.5845 17.1 15.6697 17.0837 15.749 17.0506C15.8257 17.0187 15.8972 16.9719 15.9596 16.9095L19.2095 13.6595C19.4637 13.4054 19.4637 12.9939 19.2095 12.7404C18.9554 12.4869 18.544 12.4863 18.2905 12.7404L16.15 14.8809Z" fill="#5BBE85"/>
</svg>
