<svg width="140" height="48" viewBox="0 0 140 48" fill="none" xmlns="http://www.w3.org/2000/svg">
<path d="M24 48C37.2548 48 48 37.2548 48 24C48 10.7452 37.2548 0 24 0C10.7452 0 0 10.7452 0 24C0 37.2548 10.7452 48 24 48Z" fill="white"/>
<path fill-rule="evenodd" clip-rule="evenodd" d="M24 0C10.7451 0 0 10.7451 0 24C0 25.3507 0.111583 26.6754 0.326035 27.9653C1.84592 37.1071 11.8323 32.9986 11.8323 23.7313C11.8323 17.1168 17.1944 11.7546 23.8089 11.7546H26.3405C27.6717 11.7546 28.9524 11.9315 30.1824 12.2854C31.4125 12.6224 32.5584 13.1111 33.62 13.7513C34.6984 14.3749 35.6757 15.1331 36.5519 16.0262C37.445 16.9024 38.2033 17.8797 38.8267 18.9582C39.4671 20.0366 39.9558 21.1909 40.2927 22.421C40.6466 23.651 40.8235 24.9317 40.8235 26.2629C40.8235 28.2512 40.4444 30.1301 39.6861 31.8994C38.9278 33.6518 37.8916 35.1852 36.5772 36.4996C35.2629 37.8138 33.721 38.8502 31.9517 39.6085C30.1993 40.3667 28.3288 40.7459 26.3405 40.7459H22.8091C20.7531 40.7459 19.0864 42.4126 19.0864 44.4686C19.0864 46.2324 20.3237 47.7854 22.0819 47.9245C22.7147 47.9745 23.3544 48 24 48C37.2549 48 48 37.2549 48 24C48 10.7451 37.2549 0 24 0ZM26.3405 33.517C22.3342 33.517 19.0864 30.2692 19.0864 26.2629C19.0864 22.2565 22.3342 19.0088 26.3405 19.0088C27.3347 19.0088 28.2699 19.2025 29.1462 19.5901C30.0224 19.9608 30.7891 20.4747 31.4462 21.1319C32.1034 21.7891 32.6173 22.5641 32.988 23.4572C33.3756 24.3335 33.5694 25.2687 33.5694 26.2629C33.5694 27.257 33.3756 28.2007 32.988 29.0937C32.6173 29.97 32.1034 30.7367 31.4462 31.3939C30.7891 32.051 30.0224 32.5734 29.1462 32.9609C28.2699 33.3317 27.3347 33.517 26.3405 33.517Z" fill="url(#paint0_linear_507_141)"/>
<path d="M68.9219 19.5586V26.2852H72.2852C72.7461 26.2852 73.1797 26.1992 73.5859 26.0273C73.9922 25.8477 74.3477 25.6055 74.6523 25.3008C74.957 24.9961 75.1953 24.6406 75.3672 24.2344C75.5469 23.8203 75.6367 23.3828 75.6367 22.9219C75.6367 22.4609 75.5469 22.0273 75.3672 21.6211C75.1953 21.207 74.957 20.8477 74.6523 20.543C74.3477 20.2383 73.9922 20 73.5859 19.8281C73.1797 19.6484 72.7461 19.5586 72.2852 19.5586H68.9219ZM68.9219 33H65.5586V16.1953H72.2852C72.9023 16.1953 73.4961 16.2773 74.0664 16.4414C74.6367 16.5977 75.168 16.8242 75.6602 17.1211C76.1602 17.4102 76.6133 17.7617 77.0195 18.1758C77.4336 18.582 77.7852 19.0352 78.0742 19.5352C78.3711 20.0352 78.5977 20.5703 78.7539 21.1406C78.918 21.7109 79 22.3047 79 22.9219C79 23.8438 78.8242 24.7148 78.4727 25.5352C78.1211 26.3477 77.6406 27.0586 77.0312 27.668C76.4219 28.2773 75.707 28.7578 74.8867 29.1094C74.0742 29.4609 73.207 29.6367 72.2852 29.6367H68.9219V33ZM89.8633 31.5352C89.6055 31.7695 89.3281 31.9922 89.0312 32.2031C88.7422 32.4062 88.4375 32.5859 88.1172 32.7422C87.7969 32.8906 87.4648 33.0078 87.1211 33.0938C86.7852 33.1875 86.4414 33.2344 86.0898 33.2344C85.3164 33.2344 84.5898 33.0977 83.9102 32.8242C83.2305 32.5508 82.6328 32.1641 82.1172 31.6641C81.6094 31.1562 81.207 30.543 80.9102 29.8242C80.6211 29.0977 80.4766 28.2852 80.4766 27.3867V20.4492H83.6641V27.3867C83.6641 27.8086 83.7266 28.1875 83.8516 28.5234C83.9844 28.8516 84.1602 29.1289 84.3789 29.3555C84.5977 29.582 84.8516 29.7539 85.1406 29.8711C85.4375 29.9883 85.7539 30.0469 86.0898 30.0469C86.418 30.0469 86.7266 29.9727 87.0156 29.8242C87.3125 29.668 87.5703 29.4648 87.7891 29.2148C88.0078 28.9648 88.1797 28.6836 88.3047 28.3711C88.4297 28.0508 88.4922 27.7227 88.4922 27.3867V20.4492H91.6914V33H90.918L89.8633 31.5352ZM106.703 26.6133C106.703 27.5977 106.535 28.4961 106.199 29.3086C105.863 30.1211 105.406 30.8203 104.828 31.4062C104.25 31.9844 103.57 32.4336 102.789 32.7539C102.016 33.0742 101.184 33.2344 100.293 33.2344C99.4102 33.2344 98.5781 33.0703 97.7969 32.7422C97.0234 32.4141 96.3438 31.957 95.7578 31.3711C95.1797 30.7852 94.7227 30.0898 94.3867 29.2852C94.0508 28.4727 93.8828 27.582 93.8828 26.6133V15.457H97.0938V21.3164C97.2656 21.0977 97.4727 20.9023 97.7148 20.7305C97.9648 20.5586 98.2305 20.418 98.5117 20.3086C98.8008 20.1992 99.0977 20.1172 99.4023 20.0625C99.707 20 100.004 19.9688 100.293 19.9688C101.184 19.9688 102.016 20.1367 102.789 20.4727C103.57 20.8008 104.25 21.2617 104.828 21.8555C105.406 22.4492 105.863 23.1523 106.199 23.9648C106.535 24.7695 106.703 25.6523 106.703 26.6133ZM103.48 26.6133C103.48 26.1289 103.395 25.6797 103.223 25.2656C103.059 24.8438 102.832 24.4805 102.543 24.1758C102.254 23.8711 101.914 23.6328 101.523 23.4609C101.141 23.2891 100.73 23.2031 100.293 23.2031C99.8555 23.2031 99.4414 23.3008 99.0508 23.4961C98.668 23.6836 98.332 23.9375 98.043 24.2578C97.7539 24.5703 97.5273 24.9336 97.3633 25.3477C97.1992 25.7539 97.1172 26.1758 97.1172 26.6133C97.1172 27.0977 97.1992 27.5469 97.3633 27.9609C97.5273 28.375 97.7539 28.7344 98.043 29.0391C98.332 29.3438 98.668 29.5859 99.0508 29.7656C99.4414 29.9375 99.8555 30.0234 100.293 30.0234C100.73 30.0234 101.141 29.9375 101.523 29.7656C101.914 29.5859 102.254 29.3438 102.543 29.0391C102.832 28.7344 103.059 28.375 103.223 27.9609C103.395 27.5469 103.48 27.0977 103.48 26.6133ZM121.047 26.6133C121.047 27.5977 120.879 28.4961 120.543 29.3086C120.207 30.1211 119.75 30.8203 119.172 31.4062C118.594 31.9844 117.914 32.4336 117.133 32.7539C116.359 33.0742 115.527 33.2344 114.637 33.2344C113.754 33.2344 112.922 33.0703 112.141 32.7422C111.367 32.4141 110.688 31.957 110.102 31.3711C109.523 30.7852 109.066 30.0898 108.73 29.2852C108.395 28.4727 108.227 27.582 108.227 26.6133V15.457H111.438V21.3164C111.609 21.0977 111.816 20.9023 112.059 20.7305C112.309 20.5586 112.574 20.418 112.855 20.3086C113.145 20.1992 113.441 20.1172 113.746 20.0625C114.051 20 114.348 19.9688 114.637 19.9688C115.527 19.9688 116.359 20.1367 117.133 20.4727C117.914 20.8008 118.594 21.2617 119.172 21.8555C119.75 22.4492 120.207 23.1523 120.543 23.9648C120.879 24.7695 121.047 25.6523 121.047 26.6133ZM117.824 26.6133C117.824 26.1289 117.738 25.6797 117.566 25.2656C117.402 24.8438 117.176 24.4805 116.887 24.1758C116.598 23.8711 116.258 23.6328 115.867 23.4609C115.484 23.2891 115.074 23.2031 114.637 23.2031C114.199 23.2031 113.785 23.3008 113.395 23.4961C113.012 23.6836 112.676 23.9375 112.387 24.2578C112.098 24.5703 111.871 24.9336 111.707 25.3477C111.543 25.7539 111.461 26.1758 111.461 26.6133C111.461 27.0977 111.543 27.5469 111.707 27.9609C111.871 28.375 112.098 28.7344 112.387 29.0391C112.676 29.3438 113.012 29.5859 113.395 29.7656C113.785 29.9375 114.199 30.0234 114.637 30.0234C115.074 30.0234 115.484 29.9375 115.867 29.7656C116.258 29.5859 116.598 29.3438 116.887 29.0391C117.176 28.7344 117.402 28.375 117.566 27.9609C117.738 27.5469 117.824 27.0977 117.824 26.6133ZM126.051 33H122.828V15.457H126.051V33ZM133.492 29.9297C133.617 29.9688 133.742 29.9961 133.867 30.0117C133.992 30.0195 134.117 30.0234 134.242 30.0234C134.555 30.0234 134.855 29.9805 135.145 29.8945C135.434 29.8086 135.703 29.6875 135.953 29.5312C136.211 29.3672 136.438 29.1719 136.633 28.9453C136.836 28.7109 137 28.4531 137.125 28.1719L139.469 30.5273C139.172 30.9492 138.828 31.3281 138.438 31.6641C138.055 32 137.637 32.2852 137.184 32.5195C136.738 32.7539 136.266 32.9297 135.766 33.0469C135.273 33.1719 134.766 33.2344 134.242 33.2344C133.359 33.2344 132.527 33.0703 131.746 32.7422C130.973 32.4141 130.293 31.957 129.707 31.3711C129.129 30.7852 128.672 30.0898 128.336 29.2852C128 28.4727 127.832 27.582 127.832 26.6133C127.832 25.6211 128 24.7148 128.336 23.8945C128.672 23.0742 129.129 22.375 129.707 21.7969C130.293 21.2188 130.973 20.7695 131.746 20.4492C132.527 20.1289 133.359 19.9688 134.242 19.9688C134.766 19.9688 135.277 20.0312 135.777 20.1562C136.277 20.2812 136.75 20.4609 137.195 20.6953C137.648 20.9297 138.07 21.2188 138.461 21.5625C138.852 21.8984 139.195 22.2773 139.492 22.6992L133.492 29.9297ZM135.133 23.332C134.984 23.2773 134.836 23.2422 134.688 23.2266C134.547 23.2109 134.398 23.2031 134.242 23.2031C133.805 23.2031 133.391 23.2852 133 23.4492C132.617 23.6055 132.281 23.832 131.992 24.1289C131.711 24.4258 131.488 24.7852 131.324 25.207C131.16 25.6211 131.078 26.0898 131.078 26.6133C131.078 26.7305 131.082 26.8633 131.09 27.0117C131.105 27.1602 131.125 27.3125 131.148 27.4688C131.18 27.6172 131.215 27.7617 131.254 27.9023C131.293 28.043 131.344 28.168 131.406 28.2773L135.133 23.332Z" fill="url(#paint1_linear_507_141)"/>
<defs>
<linearGradient id="paint0_linear_507_141" x1="5.02703" y1="5.65714" x2="38.7652" y2="40.991" gradientUnits="userSpaceOnUse">
<stop stop-color="#5EC05D"/>
<stop offset="1" stop-color="#21AB75"/>
</linearGradient>
<linearGradient id="paint1_linear_507_141" x1="71.9595" y1="12.5357" x2="85.8924" y2="49.502" gradientUnits="userSpaceOnUse">
<stop stop-color="#5EC05D"/>
<stop offset="1" stop-color="#21AB75"/>
</linearGradient>
</defs>
</svg>
