<svg width="48" height="48" viewBox="0 0 48 48" fill="none" xmlns="http://www.w3.org/2000/svg">
<path d="M24 48C37.2548 48 48 37.2548 48 24C48 10.7452 37.2548 0 24 0C10.7452 0 0 10.7452 0 24C0 37.2548 10.7452 48 24 48Z" fill="white"/>
<path fill-rule="evenodd" clip-rule="evenodd" d="M24 0C10.7451 0 0 10.7451 0 24C0 25.3507 0.111583 26.6754 0.326035 27.9653C1.84592 37.1071 11.8323 32.9986 11.8323 23.7313C11.8323 17.1168 17.1944 11.7546 23.8089 11.7546H26.3405C27.6717 11.7546 28.9524 11.9315 30.1824 12.2854C31.4125 12.6224 32.5584 13.1111 33.62 13.7513C34.6984 14.3749 35.6757 15.1331 36.5519 16.0262C37.445 16.9024 38.2033 17.8797 38.8267 18.9582C39.4671 20.0366 39.9558 21.1909 40.2927 22.421C40.6466 23.651 40.8235 24.9317 40.8235 26.2629C40.8235 28.2512 40.4444 30.1301 39.6861 31.8994C38.9278 33.6518 37.8916 35.1852 36.5772 36.4996C35.2629 37.8138 33.721 38.8502 31.9517 39.6085C30.1993 40.3667 28.3288 40.7459 26.3405 40.7459H22.8091C20.7531 40.7459 19.0864 42.4126 19.0864 44.4686C19.0864 46.2324 20.3237 47.7854 22.0819 47.9245C22.7147 47.9745 23.3544 48 24 48C37.2549 48 48 37.2549 48 24C48 10.7451 37.2549 0 24 0ZM26.3405 33.517C22.3342 33.517 19.0864 30.2692 19.0864 26.2629C19.0864 22.2565 22.3342 19.0088 26.3405 19.0088C27.3347 19.0088 28.2699 19.2025 29.1462 19.5901C30.0224 19.9608 30.7891 20.4747 31.4462 21.1319C32.1034 21.7891 32.6173 22.5641 32.988 23.4572C33.3756 24.3335 33.5694 25.2687 33.5694 26.2629C33.5694 27.257 33.3756 28.2007 32.988 29.0937C32.6173 29.97 32.1034 30.7367 31.4462 31.3939C30.7891 32.051 30.0224 32.5734 29.1462 32.9609C28.2699 33.3317 27.3347 33.517 26.3405 33.517Z" fill="url(#paint0_linear_320_26)"/>
<defs>
<linearGradient id="paint0_linear_320_26" x1="5.02703" y1="5.65714" x2="38.7652" y2="40.991" gradientUnits="userSpaceOnUse">
<stop stop-color="#5EC05D"/>
<stop offset="1" stop-color="#21AB75"/>
</linearGradient>
</defs>
</svg>
