<svg width="26" height="23" viewBox="0 0 26 23" fill="none" xmlns="http://www.w3.org/2000/svg">
<path d="M24.05 1.21553C23.441 0.724089 22.7273 0.368066 21.9597 0.172745C21.192 -0.0225755 20.3893 -0.0524029 19.6083 0.0853805L15.4678 0.810937C14.5119 0.980349 13.6427 1.45497 13 2.15855C12.3556 1.45376 11.4839 0.979026 10.5257 0.810937L6.39167 0.0853805C5.61075 -0.0525235 4.80798 -0.0230869 4.04016 0.171607C3.27234 0.3663 2.55825 0.721491 1.94845 1.21204C1.33864 1.70258 0.848018 2.31649 0.511314 3.0103C0.17461 3.70411 5.28802e-05 4.46087 0 5.22701L0 16.5108C6.22438e-05 17.7348 0.445225 18.92 1.25789 19.8598C2.07056 20.7996 3.1992 21.4343 4.44708 21.6534L11.2569 22.8484C12.4095 23.0505 13.5905 23.0505 14.7431 22.8484L21.5583 21.6534C22.8052 21.4332 23.9326 20.798 24.7442 19.8583C25.5558 18.9187 26.0002 17.7341 26 16.5108V5.22701C26.0005 4.46114 25.826 3.70459 25.489 3.01123C25.1519 2.31787 24.6606 1.70475 24.05 1.21553ZM11.9167 20.8338C11.8257 20.8212 11.7347 20.8066 11.6437 20.7909L4.83492 19.597C4.08608 19.4655 3.40881 19.0846 2.9212 18.5206C2.43358 17.9566 2.16655 17.2453 2.16667 16.5108V5.22701C2.16667 4.39518 2.50908 3.59742 3.11857 3.00923C3.72806 2.42104 4.55471 2.09059 5.41667 2.09059C5.61285 2.09104 5.80861 2.10819 6.00167 2.14182L10.14 2.87365C10.6379 2.96158 11.0882 3.21497 11.4127 3.58984C11.7373 3.96472 11.9156 4.43742 11.9167 4.92591V20.8338ZM23.8333 16.5108C23.8334 17.2453 23.5664 17.9566 23.0788 18.5206C22.5912 19.0846 21.9139 19.4655 21.1651 19.597L14.3563 20.7909C14.2653 20.8066 14.1743 20.8212 14.0833 20.8338V4.92591C14.0833 4.43622 14.2613 3.96204 14.5864 3.58604C14.9114 3.21004 15.3629 2.95608 15.8622 2.86842L20.0016 2.13659C20.4704 2.05429 20.9522 2.07246 21.4129 2.18982C21.8735 2.30718 22.3019 2.52087 22.6675 2.81574C23.0331 3.11061 23.327 3.47945 23.5285 3.89614C23.73 4.31284 23.834 4.76718 23.8333 5.22701V16.5108Z" fill="url(#paint0_linear_372_291)"/>
<defs>
<linearGradient id="paint0_linear_372_291" x1="5.57143" y1="3.79842e-07" x2="15.4025" y2="26.1959" gradientUnits="userSpaceOnUse">
<stop stop-color="#5EC05D"/>
<stop offset="1" stop-color="#21AB75"/>
</linearGradient>
</defs>
</svg>
