<svg width="37" height="37" viewBox="0 0 37 37" fill="none" xmlns="http://www.w3.org/2000/svg">
<path fill-rule="evenodd" clip-rule="evenodd" d="M18.5 0C8.2827 0 0 8.2827 0 18.5C0 19.5412 0.0860118 20.5623 0.251318 21.5566C1.42289 28.6034 9.12072 25.4364 9.12072 18.2929C9.12072 13.1942 13.254 9.06086 18.3527 9.06086H20.3041C21.3303 9.06086 22.3175 9.19718 23.2656 9.46997C24.2138 9.72977 25.0971 10.1064 25.9154 10.6C26.7466 11.0806 27.5 11.6651 28.1754 12.3535C28.8638 13.0289 29.4484 13.7823 29.9289 14.6136C30.4226 15.4449 30.7992 16.3346 31.059 17.2828C31.3317 18.231 31.4681 19.2182 31.4681 20.2443C31.4681 21.777 31.1759 23.2253 30.5914 24.5891C30.0069 25.9399 29.2081 27.1219 28.1949 28.1351C27.1818 29.1482 25.9933 29.947 24.6294 30.5315C23.2787 31.116 21.8368 31.4083 20.3041 31.4083H17.582C15.9972 31.4083 14.7124 32.6931 14.7124 34.2779C14.7124 35.6375 15.6661 36.8346 17.0215 36.9418C17.5092 36.9803 18.0023 37 18.5 37C28.7173 37 37 28.7173 37 18.5C37 8.2827 28.7173 0 18.5 0ZM20.3041 25.836C17.2159 25.836 14.7124 23.3325 14.7124 20.2443C14.7124 17.1561 17.2159 14.6526 20.3041 14.6526C21.0705 14.6526 21.7914 14.802 22.4668 15.1007C23.1423 15.3864 23.7332 15.7826 24.2398 16.2891C24.7464 16.7957 25.1425 17.3932 25.4283 18.0816C25.727 18.757 25.8764 19.478 25.8764 20.2443C25.8764 21.0106 25.727 21.738 25.4283 22.4264C25.1425 23.1019 24.7464 23.6928 24.2398 24.1994C23.7332 24.706 23.1423 25.1086 22.4668 25.4074C21.7914 25.6932 21.0705 25.836 20.3041 25.836Z" fill="white"/>
</svg>
